<?xml version="1.0" encoding="utf-8" ?>	<!-- Generator: Assembly 2.4 - http://assemblyapp.co -->	<svg version="1.1" xmlns="http://www.w3.org/2000/svg" xmlns:xlink="http://www.w3.org/1999/xlink" width="4096.00" height="2341.00" viewBox="0 0 4096.0 2341.0">		<g id="document" transform="scale(13.653333333333334 13.653333333333334) translate(150.0 85.71428571428571)">			<defs>				<filter id="9Z7xNsMJ" x="-7.85%" y="-48.50%" width="129.03%" height="263.00%" filterUnits="objectBoundingBox">					<feOffset dx="7.62" dy="4.50" in="SourceAlpha" result="shadowOffsetOuter1" />					<feGaussianBlur stdDeviation="14.73" in="shadowOffsetOuter1" result="shadowBlurOuter1" />					<feFlood flood-color="#000000" flood-opacity="1.00" />					<feComposite in2="shadowBlurOuter1" operator="in" />					<feMerge>						<feMergeNode />						<feMergeNode in="SourceGraphic" />					</feMerge>				</filter>			</defs>			<path d="M-138.538,24.7237 L-134.151,24.7237 L-134.151,8.77182 C-134.151,5.93594 -133.741,3.7204 -132.921,2.12521 C-132.101,0.530025 -131.182,-0.666365 -130.163,-1.46396 C-129.144,-2.26155 -128.158,-2.74897 -127.205,-2.92621 C-126.252,-3.10346 -125.643,-3.19208 -125.377,-3.19208 C-122.364,-3.19208 -120.304,-2.35017 -119.196,-0.666365 C-118.088,1.01744 -117.534,3.43238 -117.534,6.57844 L-117.534,24.7237 L-113.147,24.7237 L-113.147,8.17363 C-113.147,6.71137 -112.992,5.30451 -112.682,3.95303 C-112.372,2.60155 -111.874,1.39408 -111.187,0.330626 C-110.5,-0.732832 -109.603,-1.58581 -108.495,-2.22832 C-107.387,-2.87082 -106.013,-3.19208 -104.374,-3.19208 C-101.361,-3.19208 -99.3004,-2.35017 -98.1926,-0.666365 C-97.0848,1.01744 -96.531,3.43238 -96.531,6.57844 L-96.531,24.7237 L-92.1442,24.7237 L-92.1442,4.98325 C-92.1442,1.08391 -93.0969,-1.91814 -95.0022,-4.0229 C-96.9076,-6.12766 -99.8543,-7.18004 -103.842,-7.18004 C-105.925,-7.18004 -107.93,-6.60401 -109.857,-5.45193 C-111.785,-4.29985 -113.192,-2.72682 -114.078,-0.732832 C-114.61,-2.06215 -115.263,-3.14777 -116.039,-3.98967 C-116.814,-4.83158 -117.645,-5.48516 -118.531,-5.95042 C-119.417,-6.41568 -120.337,-6.73694 -121.29,-6.91418 C-122.242,-7.09142 -123.14,-7.18004 -123.981,-7.18004 C-125.843,-7.18004 -127.715,-6.71478 -129.598,-5.78426 C-131.481,-4.85373 -132.954,-3.4801 -134.018,-1.66336 L-134.151,-1.66336 L-134.151,-6.38245 L-138.87,-6.38245 C-138.781,-5.23037 -138.704,-4.07829 -138.637,-2.92621 C-138.571,-1.77413 -138.538,-0.622055 -138.538,0.530025 L-138.538,24.7237 Z M-56.3633,9.17062 C-56.3633,10.8987 -56.6402,12.5161 -57.1941,14.0226 C-57.748,15.5292 -58.5345,16.8364 -59.5536,17.9441 C-60.5728,19.0519 -61.8024,19.9271 -63.2425,20.5696 C-64.6826,21.2121 -66.311,21.5333 -68.1278,21.5333 C-69.9445,21.5333 -71.5729,21.2121 -73.013,20.5696 C-74.4531,19.9271 -75.6717,19.0519 -76.6687,17.9441 C-77.6657,16.8364 -78.4411,15.5292 -78.995,14.0226 C-79.5489,12.5161 -79.8258,10.8987 -79.8258,9.17062 C-79.8258,7.4425 -79.5489,5.82516 -78.995,4.31859 C-78.4411,2.81203 -77.6657,1.50486 -76.6687,0.397092 C-75.6717,-0.710676 -74.4531,-1.58581 -73.013,-2.22832 C-71.5729,-2.87082 -69.9445,-3.19208 -68.1278,-3.19208 C-66.311,-3.19208 -64.6826,-2.87082 -63.2425,-2.22832 C-61.8024,-1.58581 -60.5728,-0.710676 -59.5536,0.397092 C-58.5345,1.50486 -57.748,2.81203 -57.1941,4.31859 C-56.6402,5.82516 -56.3633,7.4425 -56.3633,9.17062 Z M-51.5777,9.17062 C-51.5777,6.82215 -51.9876,4.65092 -52.8073,2.65694 C-53.6271,0.662957 -54.7681,-1.06516 -56.2303,-2.52742 C-57.6926,-3.98967 -59.4318,-5.13067 -61.4479,-5.95042 C-63.4641,-6.77017 -65.6907,-7.18004 -68.1278,-7.18004 C-70.5205,-7.18004 -72.725,-6.77017 -74.7411,-5.95042 C-76.7573,-5.13067 -78.4965,-3.98967 -79.9587,-2.52742 C-81.421,-1.06516 -82.562,0.662957 -83.3817,2.65694 C-84.2015,4.65092 -84.6114,6.82215 -84.6114,9.17062 C-84.6114,11.5191 -84.2015,13.6903 -83.3817,15.6843 C-82.562,17.6783 -81.421,19.4064 -79.9587,20.8687 C-78.4965,22.3309 -76.7573,23.4719 -74.7411,24.2917 C-72.725,25.1114 -70.5205,25.5213 -68.1278,25.5213 C-65.6907,25.5213 -63.4641,25.1114 -61.4479,24.2917 C-59.4318,23.4719 -57.6926,22.3309 -56.2303,20.8687 C-54.7681,19.4064 -53.6271,17.6783 -52.8073,15.6843 C-51.9876,13.6903 -51.5777,11.5191 -51.5777,9.17062 Z M-39.3258,-25.5247 L-43.7125,-25.5247 L-43.7125,24.7237 L-39.3258,24.7237 L-39.3258,-25.5247 Z M-26.6751,6.77784 C-26.6751,5.49283 -26.376,4.25213 -25.7778,3.05574 C-25.1796,1.85935 -24.382,0.795889 -23.385,-0.134636 C-22.388,-1.06516 -21.2248,-1.80737 -19.8955,-2.36125 C-18.5662,-2.91514 -17.1926,-3.19208 -15.7746,-3.19208 C-12.5843,-3.19208 -10.1028,-2.27263 -8.33042,-0.433734 C-6.55799,1.40516 -5.67178,3.80902 -5.67178,6.77784 L-26.6751,6.77784 Z M-0.886215,10.367 L-0.886215,8.37303 C-0.886215,6.24611 -1.21855,4.24105 -1.88321,2.35784 C-2.54787,0.474636 -3.51163,-1.16486 -4.77448,-2.56065 C-6.03734,-3.95644 -7.59929,-5.07528 -9.46034,-5.91719 C-11.3214,-6.75909 -13.4262,-7.18004 -15.7746,-7.18004 C-17.9902,-7.18004 -20.0506,-6.77017 -21.956,-5.95042 C-23.8613,-5.13067 -25.523,-3.98967 -26.9409,-2.52742 C-28.3589,-1.06516 -29.4666,0.662957 -30.2642,2.65694 C-31.0618,4.65092 -31.4606,6.82215 -31.4606,9.17062 C-31.4606,11.5191 -31.0508,13.6903 -30.231,15.6843 C-29.4113,17.6783 -28.2924,19.4064 -26.8745,20.8687 C-25.4565,22.3309 -23.7616,23.4719 -21.7898,24.2917 C-19.818,25.1114 -17.68,25.5213 -15.3758,25.5213 C-12.8058,25.5213 -10.4019,25.0117 -8.16425,23.9926 C-5.92656,22.9734 -3.87719,21.2896 -2.01614,18.9411 L-5.40591,16.1496 C-6.29213,17.5675 -7.58821,18.8193 -9.29418,19.9049 C-11.0001,20.9905 -13.0274,21.5333 -15.3758,21.5333 C-16.9267,21.5333 -18.3668,21.2453 -19.6961,20.6693 C-21.0254,20.0932 -22.1997,19.3067 -23.2188,18.3097 C-24.238,17.3127 -25.0577,16.1274 -25.6781,14.7538 C-26.2984,13.3801 -26.6751,11.9179 -26.808,10.367 L-0.886215,10.367 Z M32.2361,-1.79629 C30.6852,-3.61303 28.9349,-4.95343 26.9852,-5.81749 C25.0356,-6.68155 22.9973,-7.13573 20.8704,-7.18004 C18.3446,-7.22436 16.0626,-6.83664 14.0244,-6.01689 C11.9861,-5.19714 10.2469,-4.05614 8.80676,-2.59388 C7.36666,-1.13163 6.26997,0.607568 5.51669,2.62371 C4.76341,4.63985 4.38676,6.82215 4.38676,9.17062 C4.38676,11.5191 4.76341,13.7014 5.51669,15.7175 C6.26997,17.7337 7.36666,19.4729 8.80676,20.9351 C10.2469,22.3974 11.9861,23.5384 14.0244,24.3581 C16.0626,25.1779 18.3446,25.5656 20.8704,25.5213 C22.9973,25.477 25.0356,25.0228 26.9852,24.1587 C28.9349,23.2947 30.6852,21.9543 32.2361,20.1375 L28.6469,17.4124 C27.8936,18.5645 26.8412,19.5393 25.4898,20.3369 C24.1383,21.1345 22.5985,21.5333 20.8704,21.5333 C19.0536,21.5776 17.4252,21.2896 15.9851,20.6693 C14.545,20.0489 13.3154,19.1848 12.2962,18.0771 C11.2771,16.9693 10.5016,15.6511 9.96992,14.1223 C9.43819,12.5936 9.17232,10.943 9.17232,9.17062 C9.17232,7.39819 9.43819,5.74761 9.96992,4.21889 C10.5016,2.69017 11.2771,1.37193 12.2962,0.26416 C13.3154,-0.843608 14.545,-1.70767 15.9851,-2.32802 C17.4252,-2.94837 19.0536,-3.23639 20.8704,-3.19208 C22.5985,-3.19208 24.1383,-2.79328 25.4898,-1.99569 C26.8412,-1.19809 27.8936,-0.223258 28.6469,0.928821 L32.2361,-1.79629 Z M63.8961,24.7237 C63.8075,23.5716 63.7299,22.3531 63.6635,21.0681 C63.597,19.783 63.5638,18.7196 63.5638,17.8777 L63.5638,-6.38245 L59.177,-6.38245 L59.177,9.56942 C59.177,12.4053 58.7339,14.6208 57.8477,16.216 C56.9615,17.8112 55.9534,19.0076 54.8235,19.8052 C53.6935,20.6028 52.619,21.0902 51.5999,21.2675 C50.5807,21.4447 49.9604,21.5333 49.7388,21.5333 C48.0993,21.5333 46.7368,21.3007 45.6511,20.8354 C44.5655,20.3702 43.7015,19.6833 43.059,18.775 C42.4165,17.8666 41.9623,16.7478 41.6964,15.4184 C41.4305,14.0891 41.2976,12.5604 41.2976,10.8323 L41.2976,-6.38245 L36.9109,-6.38245 L36.9109,13.358 C36.9109,17.2573 37.8635,20.2594 39.7689,22.3641 C41.6743,24.4689 44.6209,25.5213 48.6089,25.5213 C49.628,25.5213 50.6583,25.3773 51.6996,25.0893 C52.7409,24.8012 53.7268,24.4024 54.6573,23.8929 C55.5878,23.3833 56.4297,22.774 57.183,22.065 C57.9363,21.3561 58.5566,20.5806 59.0441,19.7387 L59.177,19.7387 C59.177,20.5806 59.1881,21.4115 59.2102,22.2312 C59.2324,23.051 59.2878,23.8818 59.3764,24.7237 L63.8961,24.7237 Z M78.142,-25.5247 L73.7552,-25.5247 L73.7552,24.7237 L78.142,24.7237 L78.142,-25.5247 Z M107.542,9.23709 L107.542,11.4969 C107.542,12.8706 107.354,14.1667 106.977,15.3852 C106.601,16.6037 106.013,17.6672 105.216,18.5756 C104.418,19.4839 103.432,20.204 102.258,20.7357 C101.084,21.2675 99.6992,21.5333 98.104,21.5333 C97.2178,21.5333 96.3426,21.4336 95.4786,21.2342 C94.6145,21.0348 93.828,20.7025 93.119,20.2372 C92.4101,19.772 91.8451,19.1738 91.4241,18.4426 C91.0032,17.7115 90.7927,16.8364 90.7927,15.8172 C90.7927,14.2664 91.3355,13.0478 92.4211,12.1616 C93.5067,11.2754 94.8139,10.6218 96.3426,10.2008 C97.8714,9.77989 99.4665,9.51403 101.128,9.40325 C102.79,9.29247 104.175,9.23709 105.282,9.23709 L107.542,9.23709 Z M105.349,5.64792 C103.488,5.64792 101.438,5.73654 99.2007,5.91378 C96.963,6.09102 94.8582,6.53413 92.8864,7.2431 C90.9146,7.95207 89.2751,9.02661 87.9679,10.4667 C86.6607,11.9068 86.0072,13.8897 86.0072,16.4154 C86.0072,17.922 86.3063,19.2402 86.9044,20.3702 C87.5026,21.5001 88.3002,22.4528 89.2972,23.2282 C90.2942,24.0036 91.4352,24.5797 92.7202,24.9563 C94.0052,25.333 95.3346,25.5213 96.7082,25.5213 C99.2339,25.5213 101.372,25.0671 103.122,24.1587 C104.872,23.2504 106.39,21.7549 107.675,19.6723 L107.808,19.6723 C107.808,20.5142 107.841,21.3782 107.908,22.2644 C107.974,23.1507 108.074,23.9704 108.207,24.7237 L112.461,24.7237 C112.328,23.8818 112.206,22.8073 112.095,21.5001 C111.984,20.1929 111.929,18.9411 111.929,17.7447 L111.929,3.85333 C111.929,1.94797 111.619,0.308471 110.998,-1.06516 C110.378,-2.4388 109.558,-3.5798 108.539,-4.48817 C107.52,-5.39654 106.313,-6.07228 104.917,-6.51538 C103.521,-6.95849 102.07,-7.18004 100.563,-7.18004 C94.7142,-7.18004 90.3275,-5.67348 87.4029,-2.66035 L90.0616,0.463559 C92.7645,-1.97353 95.9328,-3.19208 99.5662,-3.19208 C104.884,-3.19208 107.542,-0.511278 107.542,4.85032 L107.542,5.64792 L105.349,5.64792 Z M121.456,24.7237 L125.843,24.7237 L125.843,7.17664 C125.843,6.11318 126.031,5.00541 126.407,3.85333 C126.784,2.70125 127.371,1.62672 128.169,0.629724 C128.966,-0.367268 129.963,-1.18702 131.16,-1.82952 C132.356,-2.47203 133.796,-2.79328 135.48,-2.79328 C136.588,-2.79328 137.43,-2.6825 138.006,-2.46095 L138.87,-6.78125 C137.939,-7.04711 136.854,-7.18004 135.613,-7.18004 C134.239,-7.18004 133.01,-6.99172 131.924,-6.61508 C130.839,-6.23844 129.886,-5.73995 129.066,-5.1196 C128.246,-4.49924 127.548,-3.80135 126.972,-3.02591 C126.396,-2.25047 125.953,-1.4418 125.643,-0.599899 L125.51,-0.599899 L125.51,-6.38245 L121.19,-6.38245 C121.234,-4.1226 121.29,-2.28371 121.356,-0.865764 C121.423,0.55218 121.456,1.94797 121.456,3.3216 L121.456,24.7237 Z " fill="#3cb44b" fill-opacity="0.86" stroke-width="0.40" stroke="#000000" stroke-linecap="square" stroke-linejoin="miter" filter="url(#9Z7xNsMJ)" />		</g>	</svg>